<svg width="879" height="650" viewBox="0 0 879 650" fill="none" xmlns="http://www.w3.org/2000/svg">
<g clip-path="url(#clip0_546_4314)">
<rect width="879" height="649.521" fill="white"/>
<g clip-path="url(#clip1_546_4314)">
<rect width="879" height="649.521" fill="white"/>
<path fill-rule="evenodd" clip-rule="evenodd" d="M879 55.0214H0V53.6794H879V55.0214Z" fill="black" fill-opacity="0.1"/>
<path fill-rule="evenodd" clip-rule="evenodd" d="M852.165 25.8908L858.4 19.6553L859.349 20.6043L853.114 26.8397L859.349 33.0752L858.4 34.0241L852.165 27.7887L845.929 34.0241L844.98 33.0752L851.216 26.8397L844.98 20.6044L845.929 19.6554L852.165 25.8908Z" fill="black" fill-opacity="0.8"/>
<path d="M49.3704 32.1038V21.3679H53.3964C54.2211 21.3679 54.9131 21.5217 55.4723 21.8293C56.0349 22.1368 56.4595 22.5597 56.7461 23.0978C57.0362 23.6325 57.1812 24.2406 57.1812 24.9221C57.1812 25.6106 57.0362 26.2222 56.7461 26.7569C56.456 27.2915 56.0279 27.7127 55.4618 28.0202C54.8956 28.3242 54.1984 28.4763 53.3702 28.4763H50.7019V26.8774H53.1081C53.5903 26.8774 53.9853 26.7935 54.2928 26.6258C54.6003 26.458 54.8275 26.2274 54.9743 25.9338C55.1245 25.6403 55.1997 25.303 55.1997 24.9221C55.1997 24.5412 55.1245 24.2057 54.9743 23.9156C54.8275 23.6256 54.5986 23.4001 54.2875 23.2394C53.98 23.0751 53.5834 22.993 53.0976 22.993H51.3153V32.1038H49.3704ZM60.7581 21.3679V32.1038H58.8604V21.3679H60.7581ZM67.9153 28.7174V24.0519H69.8129V32.1038H67.973V30.6727H67.8891C67.7074 31.1235 67.4086 31.4922 66.9927 31.7788C66.5803 32.0654 66.0718 32.2087 65.4672 32.2087C64.9395 32.2087 64.473 32.0916 64.0676 31.8574C63.6657 31.6198 63.3512 31.2756 63.124 30.8247C62.8968 30.3704 62.7833 29.8217 62.7833 29.1787V24.0519H64.6809V28.8852C64.6809 29.3954 64.8207 29.8008 65.1003 30.1013C65.3799 30.4019 65.7468 30.5522 66.2011 30.5522C66.4807 30.5522 66.7515 30.484 67.0137 30.3477C67.2758 30.2114 67.4907 30.0087 67.6584 29.7396C67.8297 29.467 67.9153 29.1263 67.9153 28.7174ZM75.3399 35.291C74.6584 35.291 74.073 35.1984 73.5838 35.0132C73.0945 34.8315 72.7013 34.5868 72.4043 34.2793C72.1072 33.9718 71.901 33.631 71.7857 33.2571L73.4947 32.843C73.5715 33.0002 73.6834 33.1557 73.8301 33.3095C73.9769 33.4668 74.1744 33.5961 74.4225 33.6974C74.6741 33.8023 74.9904 33.8547 75.3713 33.8547C75.9095 33.8547 76.3551 33.7236 76.7081 33.4615C77.061 33.2029 77.2375 32.7766 77.2375 32.1825V30.657H77.1432C77.0453 30.8527 76.902 31.0536 76.7133 31.2598C76.5281 31.466 76.2817 31.639 75.9742 31.7788C75.6701 31.9186 75.2875 31.9885 74.8262 31.9885C74.2076 31.9885 73.6467 31.8435 73.1434 31.5534C72.6437 31.2598 72.2453 30.823 71.9482 30.2429C71.6547 29.6592 71.5079 28.9288 71.5079 28.0517C71.5079 27.1675 71.6547 26.4214 71.9482 25.8133C72.2453 25.2017 72.6454 24.7386 73.1487 24.4241C73.6519 24.1061 74.2128 23.9471 74.8314 23.9471C75.3032 23.9471 75.6911 24.0274 75.9951 24.1882C76.3027 24.3455 76.5473 24.5359 76.729 24.7596C76.9108 24.9798 77.0488 25.1877 77.1432 25.3834H77.248V24.0519H79.1195V32.2349C79.1195 32.9233 78.9552 33.493 78.6267 33.9438C78.2982 34.3946 77.8491 34.7319 77.2795 34.9555C76.7098 35.1792 76.0633 35.291 75.3399 35.291ZM75.3556 30.4997C75.7575 30.4997 76.1 30.4019 76.3831 30.2062C76.6661 30.0105 76.8811 29.7291 77.0278 29.3622C77.1746 28.9952 77.248 28.5549 77.248 28.0412C77.248 27.5344 77.1746 27.0906 77.0278 26.7097C76.8846 26.3287 76.6714 26.0334 76.3883 25.8238C76.1087 25.6106 75.7645 25.504 75.3556 25.504C74.9327 25.504 74.5798 25.6141 74.2967 25.8342C74.0136 26.0544 73.8004 26.3567 73.6572 26.7411C73.5139 27.1221 73.4422 27.5554 73.4422 28.0412C73.4422 28.5339 73.5139 28.9655 73.6572 29.336C73.8039 29.7029 74.0189 29.9895 74.3019 30.1957C74.5885 30.3984 74.9397 30.4997 75.3556 30.4997ZM81.1381 32.1038V24.0519H83.0357V32.1038H81.1381ZM82.0922 22.9091C81.7916 22.9091 81.533 22.8095 81.3163 22.6103C81.0997 22.4076 80.9913 22.1647 80.9913 21.8817C80.9913 21.5951 81.0997 21.3522 81.3163 21.153C81.533 20.9503 81.7916 20.849 82.0922 20.849C82.3962 20.849 82.6548 20.9503 82.868 21.153C83.0847 21.3522 83.193 21.5951 83.193 21.8817C83.193 22.1647 83.0847 22.4076 82.868 22.6103C82.6548 22.8095 82.3962 22.9091 82.0922 22.9091ZM86.9586 27.3859V32.1038H85.0609V24.0519H86.8747V25.4201H86.9691C87.1543 24.9693 87.4496 24.6111 87.855 24.3455C88.2639 24.0799 88.7689 23.9471 89.37 23.9471C89.9256 23.9471 90.4097 24.0659 90.822 24.3035C91.2379 24.5412 91.5594 24.8854 91.7866 25.3362C92.0172 25.7871 92.1308 26.334 92.1273 26.977V32.1038H90.2297V27.2706C90.2297 26.7324 90.0899 26.3113 89.8103 26.0072C89.5342 25.7032 89.1515 25.5512 88.6623 25.5512C88.3303 25.5512 88.035 25.6246 87.7764 25.7713C87.5212 25.9146 87.3203 26.1226 87.1735 26.3951C87.0302 26.6677 86.9586 26.998 86.9586 27.3859Z" fill="black" fill-opacity="0.8"/>
<rect x="16.104" y="16.1038" width="21.4718" height="21.4718" rx="4.02595" fill="#A265F2" fill-opacity="0.1"/>
<path d="M24.4246 23.1421L19.0566 26.7733L24.4246 30.1019" stroke="#A265F2" stroke-width="1.34198" stroke-linejoin="bevel"/>
<path d="M29.2551 23.1421L34.623 26.7733L29.2551 30.1019" stroke="#A265F2" stroke-width="1.34198" stroke-linejoin="bevel"/>
<path d="M30.5186 20.733L23.1618 32.5617" stroke="#A265F2" stroke-width="1.34198" stroke-linejoin="bevel"/>
<mask id="path-8-inside-1_546_4314" fill="white">
<path d="M0 53.6794H879V107.359H0V53.6794Z"/>
</mask>
<path d="M879 106.017H0V108.701H879V106.017Z" fill="black" fill-opacity="0.1" mask="url(#path-8-inside-1_546_4314)"/>
<g clip-path="url(#clip2_546_4314)">
<path d="M66.6118 74.7832H68.8816V81.7552C68.8816 82.538 68.6946 83.223 68.3207 83.8101C67.9502 84.3972 67.4313 84.855 66.7638 85.1835C66.0963 85.5086 65.3187 85.6711 64.431 85.6711C63.5399 85.6711 62.7605 85.5086 62.093 85.1835C61.4255 84.855 60.9066 84.3972 60.5361 83.8101C60.1657 83.223 59.9805 82.538 59.9805 81.7552V74.7832H62.2503V81.5612C62.2503 81.9701 62.3394 82.3336 62.5177 82.6516C62.6994 82.9696 62.9545 83.2195 63.283 83.4012C63.6115 83.583 63.9942 83.6738 64.431 83.6738C64.8714 83.6738 65.254 83.583 65.5791 83.4012C65.9076 83.2195 66.1609 82.9696 66.3392 82.6516C66.5209 82.3336 66.6118 81.9701 66.6118 81.5612V74.7832ZM73.0141 80.864V85.519H70.781V77.4671H72.9093V78.8878H73.0036C73.1819 78.4195 73.4807 78.049 73.9 77.7764C74.3194 77.5003 74.8279 77.3623 75.4255 77.3623C75.9847 77.3623 76.4722 77.4846 76.8881 77.7292C77.3039 77.9739 77.6272 78.3233 77.8578 78.7777C78.0885 79.2285 78.2038 79.7667 78.2038 80.3922V85.519H75.9707V80.7906C75.9742 80.2979 75.8484 79.9135 75.5932 79.6374C75.3381 79.3578 74.9869 79.218 74.5396 79.218C74.239 79.218 73.9734 79.2827 73.7428 79.412C73.5156 79.5413 73.3374 79.73 73.2081 79.9781C73.0823 80.2227 73.0176 80.5181 73.0141 80.864ZM84.3205 77.4671V79.1446H79.4715V77.4671H84.3205ZM80.5724 75.538H82.8055V83.0448C82.8055 83.2509 82.837 83.4117 82.8999 83.527C82.9628 83.6389 83.0502 83.7175 83.162 83.7629C83.2773 83.8084 83.4101 83.8311 83.5604 83.8311C83.6652 83.8311 83.7701 83.8223 83.8749 83.8049C83.9798 83.7839 84.0601 83.7682 84.1161 83.7577L84.4673 85.4194C84.3554 85.4544 84.1982 85.4946 83.9955 85.54C83.7928 85.5889 83.5464 85.6186 83.2563 85.6291C82.7182 85.6501 82.2464 85.5785 81.841 85.4142C81.4391 85.2499 81.1263 84.9948 80.9026 84.6488C80.679 84.3029 80.5689 83.866 80.5724 83.3383V75.538ZM85.849 85.519V77.4671H88.0821V85.519H85.849ZM86.9708 76.4292C86.6388 76.4292 86.354 76.3191 86.1163 76.0989C85.8822 75.8753 85.7651 75.6079 85.7651 75.2969C85.7651 74.9894 85.8822 74.7255 86.1163 74.5053C86.354 74.2817 86.6388 74.1698 86.9708 74.1698C87.3028 74.1698 87.5859 74.2817 87.82 74.5053C88.0577 74.7255 88.1765 74.9894 88.1765 75.2969C88.1765 75.6079 88.0577 75.8753 87.82 76.0989C87.5859 76.3191 87.3028 76.4292 86.9708 76.4292ZM94.2276 77.4671V79.1446H89.3787V77.4671H94.2276ZM90.4795 75.538H92.7127V83.0448C92.7127 83.2509 92.7441 83.4117 92.807 83.527C92.8699 83.6389 92.9573 83.7175 93.0691 83.7629C93.1845 83.8084 93.3173 83.8311 93.4675 83.8311C93.5724 83.8311 93.6772 83.8223 93.7821 83.8049C93.8869 83.7839 93.9673 83.7682 94.0232 83.7577L94.3744 85.4194C94.2626 85.4544 94.1053 85.4946 93.9026 85.54C93.6999 85.5889 93.4536 85.6186 93.1635 85.6291C92.6253 85.6501 92.1535 85.5785 91.7481 85.4142C91.3462 85.2499 91.0334 84.9948 90.8098 84.6488C90.5861 84.3029 90.476 83.866 90.4795 83.3383V75.538ZM98.1623 74.7832V85.519H95.9291V74.7832H98.1623ZM103.694 85.6763C102.866 85.6763 102.153 85.5086 101.556 85.1731C100.962 84.8341 100.504 84.3553 100.182 83.7367C99.8607 83.1147 99.7 82.379 99.7 81.5298C99.7 80.7015 99.8607 79.9746 100.182 79.3491C100.504 78.7235 100.956 78.236 101.54 77.8865C102.127 77.537 102.816 77.3623 103.605 77.3623C104.137 77.3623 104.631 77.4479 105.089 77.6192C105.55 77.7869 105.952 78.0403 106.295 78.3793C106.641 78.7183 106.91 79.1446 107.102 79.6583C107.294 80.1686 107.39 80.7662 107.39 81.4512V82.0645H100.591V80.6806H105.288C105.288 80.359 105.218 80.0742 105.078 79.8261C104.939 79.578 104.745 79.384 104.497 79.2442C104.252 79.1009 103.967 79.0293 103.642 79.0293C103.303 79.0293 103.002 79.1079 102.74 79.2652C102.482 79.419 102.279 79.6269 102.132 79.889C101.986 80.1476 101.91 80.4359 101.907 80.7539V82.0697C101.907 82.4681 101.98 82.8124 102.127 83.1024C102.277 83.3925 102.489 83.6162 102.761 83.7734C103.034 83.9307 103.357 84.0093 103.731 84.0093C103.979 84.0093 104.206 83.9744 104.413 83.9045C104.619 83.8346 104.795 83.7297 104.942 83.5899C105.089 83.4501 105.201 83.2789 105.278 83.0762L107.343 83.2125C107.238 83.7088 107.023 84.1421 106.698 84.5126C106.377 84.8795 105.961 85.1661 105.451 85.3723C104.944 85.575 104.358 85.6763 103.694 85.6763ZM111.888 85.6501C111.277 85.6501 110.723 85.4928 110.227 85.1783C109.734 84.8603 109.342 84.3937 109.052 83.7787C108.766 83.1601 108.622 82.4017 108.622 81.5036C108.622 80.581 108.771 79.8139 109.068 79.2023C109.365 78.5872 109.76 78.1276 110.253 77.8236C110.749 77.5161 111.292 77.3623 111.883 77.3623C112.334 77.3623 112.71 77.4392 113.01 77.5929C113.314 77.7432 113.559 77.9319 113.744 78.1591C113.933 78.3828 114.076 78.6029 114.174 78.8196H114.242V74.7832H116.47V85.519H114.268V84.2295H114.174C114.069 84.4531 113.921 84.6751 113.728 84.8952C113.54 85.1119 113.293 85.2919 112.989 85.4352C112.689 85.5785 112.322 85.6501 111.888 85.6501ZM112.596 83.873C112.956 83.873 113.26 83.7752 113.508 83.5795C113.76 83.3803 113.952 83.1024 114.085 82.746C114.221 82.3895 114.289 81.9719 114.289 81.4931C114.289 81.0143 114.223 80.5984 114.09 80.2455C113.957 79.8925 113.765 79.6199 113.513 79.4277C113.262 79.2355 112.956 79.1394 112.596 79.1394C112.229 79.1394 111.92 79.239 111.668 79.4382C111.417 79.6374 111.226 79.9135 111.097 80.2664C110.967 80.6194 110.903 81.0283 110.903 81.4931C110.903 81.9614 110.967 82.3755 111.097 82.7355C111.23 83.0919 111.42 83.3715 111.668 83.5742C111.92 83.7734 112.229 83.873 112.596 83.873Z" fill="black" fill-opacity="0.8"/>
</g>
<path fill-rule="evenodd" clip-rule="evenodd" d="M24.2372 80.5189L30.4727 74.2835L29.5237 73.3346L22.8138 80.0445L22.3394 80.5189L22.8138 80.9934L29.5237 87.7033L30.4727 86.7543L24.2372 80.5189Z" fill="black" fill-opacity="0.8"/>
<path d="M806.844 85.7832V75.0473H810.671C811.506 75.0473 812.198 75.1993 812.747 75.5034C813.295 75.8074 813.706 76.2233 813.979 76.751C814.251 77.2752 814.388 77.8658 814.388 78.5229C814.388 79.1834 814.249 79.7775 813.973 80.3052C813.701 80.8294 813.288 81.2453 812.736 81.5528C812.188 81.8568 811.497 82.0089 810.666 82.0089H808.034V80.6354H810.519C811.047 80.6354 811.475 80.5446 811.803 80.3628C812.132 80.1776 812.373 79.926 812.527 79.608C812.68 79.29 812.757 78.9282 812.757 78.5229C812.757 78.1175 812.68 77.7575 812.527 77.443C812.373 77.1285 812.13 76.8821 811.798 76.7038C811.469 76.5256 811.036 76.4365 810.498 76.4365H808.464V85.7832H806.844ZM821.335 82.444V77.7313H822.908V85.7832H821.367V84.3888H821.283C821.097 84.8187 820.8 85.1769 820.391 85.4634C819.986 85.7465 819.481 85.888 818.877 85.888C818.359 85.888 817.901 85.7745 817.503 85.5473C817.108 85.3167 816.797 84.9759 816.57 84.5251C816.346 84.0743 816.234 83.5169 816.234 82.8529V77.7313H817.802V82.6641C817.802 83.2128 817.954 83.6497 818.258 83.9747C818.562 84.2997 818.957 84.4622 819.443 84.4622C819.736 84.4622 820.028 84.3888 820.318 84.242C820.612 84.0952 820.855 83.8733 821.047 83.5763C821.242 83.2792 821.339 82.9018 821.335 82.444ZM825.213 85.7832V75.0473H826.781V79.0366H826.875C826.966 78.8688 827.097 78.6749 827.268 78.4547C827.44 78.2345 827.677 78.0423 827.981 77.8781C828.285 77.7103 828.687 77.6265 829.187 77.6265C829.837 77.6265 830.417 77.7907 830.927 78.1192C831.438 78.4477 831.838 78.9213 832.128 79.5398C832.421 80.1584 832.568 80.9028 832.568 81.773C832.568 82.6432 832.423 83.3893 832.133 84.0114C831.843 84.6299 831.445 85.107 830.938 85.4425C830.431 85.7745 829.853 85.9405 829.203 85.9405C828.713 85.9405 828.313 85.8583 828.002 85.6941C827.695 85.5298 827.453 85.3376 827.279 85.1175C827.104 84.8973 826.969 84.7016 826.875 84.5303H826.744V85.7832H825.213ZM826.749 81.7572C826.749 82.3234 826.831 82.8197 826.996 83.246C827.16 83.6724 827.398 84.0061 827.709 84.2473C828.02 84.4849 828.401 84.6037 828.851 84.6037C829.32 84.6037 829.711 84.4797 830.026 84.2315C830.34 83.9799 830.578 83.6392 830.739 83.2093C830.903 82.7795 830.985 82.2954 830.985 81.7572C830.985 81.226 830.905 80.749 830.744 80.3261C830.587 79.9033 830.349 79.5695 830.031 79.3249C829.716 79.0803 829.323 78.958 828.851 78.958C828.397 78.958 828.013 79.075 827.698 79.3092C827.387 79.5433 827.151 79.8701 826.99 80.2895C826.83 80.7088 826.749 81.1981 826.749 81.7572ZM835.969 75.0473V85.7832H834.402V75.0473H835.969ZM838.152 85.7832V77.7313H839.719V85.7832H838.152ZM838.943 76.4889C838.671 76.4889 838.437 76.398 838.241 76.2163C838.049 76.0311 837.953 75.8109 837.953 75.5558C837.953 75.2972 838.049 75.077 838.241 74.8953C838.437 74.7101 838.671 74.6175 838.943 74.6175C839.216 74.6175 839.448 74.7101 839.641 74.8953C839.836 75.077 839.934 75.2972 839.934 75.5558C839.934 75.8109 839.836 76.0311 839.641 76.2163C839.448 76.398 839.216 76.4889 838.943 76.4889ZM847.935 79.6971L846.515 79.9487C846.455 79.767 846.361 79.594 846.232 79.4297C846.106 79.2655 845.935 79.1309 845.718 79.0261C845.501 78.9213 845.23 78.8688 844.905 78.8688C844.462 78.8688 844.091 78.9684 843.794 79.1676C843.497 79.3633 843.348 79.6167 843.348 79.9277C843.348 80.1968 843.448 80.4135 843.647 80.5778C843.846 80.742 844.168 80.8766 844.612 80.9814L845.891 81.275C846.632 81.4462 847.184 81.7101 847.547 82.0665C847.911 82.423 848.093 82.8861 848.093 83.4557C848.093 83.938 847.953 84.3678 847.673 84.7453C847.397 85.1192 847.011 85.4128 846.515 85.6259C846.022 85.8391 845.451 85.9457 844.801 85.9457C843.899 85.9457 843.163 85.7535 842.594 85.3691C842.024 84.9812 841.674 84.4307 841.545 83.7178L843.06 83.4872C843.154 83.8821 843.348 84.1809 843.642 84.3836C843.936 84.5828 844.318 84.6824 844.79 84.6824C845.304 84.6824 845.714 84.5758 846.022 84.3626C846.329 84.1459 846.483 83.8821 846.483 83.571C846.483 83.3194 846.389 83.108 846.2 82.9367C846.015 82.7655 845.73 82.6362 845.346 82.5488L843.983 82.25C843.231 82.0788 842.676 81.8062 842.316 81.4322C841.959 81.0583 841.781 80.5848 841.781 80.0116C841.781 79.5363 841.914 79.1205 842.179 78.764C842.445 78.4075 842.812 78.1297 843.28 77.9305C843.749 77.7278 844.285 77.6265 844.89 77.6265C845.76 77.6265 846.445 77.8152 846.945 78.1926C847.444 78.5665 847.775 79.068 847.935 79.6971ZM851.457 81.0024V85.7832H849.89V75.0473H851.436V79.0418H851.536C851.724 78.6085 852.013 78.2642 852.401 78.0091C852.789 77.754 853.295 77.6265 853.921 77.6265C854.473 77.6265 854.955 77.74 855.368 77.9672C855.784 78.1943 856.105 78.5333 856.332 78.9842C856.563 79.4315 856.678 79.9907 856.678 80.6616V85.7832H855.111V80.8504C855.111 80.2597 854.959 79.8019 854.655 79.4769C854.351 79.1484 853.928 78.9842 853.386 78.9842C853.016 78.9842 852.684 79.0628 852.39 79.2201C852.1 79.3773 851.871 79.608 851.704 79.912C851.539 80.2126 851.457 80.576 851.457 81.0024Z" fill="black" fill-opacity="0.8"/>
<g clip-path="url(#clip3_546_4314)">
<path d="M27.2583 176.588V186.479H25.6198V178.286L23.376 179.666L22.6674 178.507L25.7969 176.588H27.2583ZM29.2955 185.475V186.774H23.1324V185.475H29.2955Z" fill="black" fill-opacity="0.2"/>
<g clip-path="url(#clip4_546_4314)">
<path fill-rule="evenodd" clip-rule="evenodd" d="M25.4978 134.198H32.2077V135.54H25.4978V134.198ZM24.1558 135.54V134.198V132.857H25.4978H32.2077H33.5497V134.198V135.54H38.9176H40.2596V136.882V144.934V146.276H38.9176H25.4977H24.1558V144.934V136.882V135.54H24.1558ZM25.4977 136.882V144.934H38.9176V136.882H33.5497V136.882H32.2077H25.4978H25.4977Z" fill="black" fill-opacity="0.8"/>
<path d="M58.2084 144.724C57.3836 144.724 56.6742 144.549 56.0801 144.199C55.4895 143.846 55.0352 143.357 54.7171 142.732C54.4026 142.106 54.2453 141.386 54.2453 140.572C54.2453 139.747 54.4044 139.024 54.7224 138.402C55.0439 137.776 55.5 137.289 56.0906 136.939C56.6812 136.586 57.3836 136.41 58.1979 136.41C58.9004 136.41 59.5154 136.537 60.0431 136.792C60.5708 137.047 60.9885 137.406 61.296 137.867C61.6035 138.328 61.773 138.87 61.8045 139.492H59.6972C59.6378 139.09 59.4805 138.767 59.2254 138.522C58.9737 138.274 58.6435 138.15 58.2346 138.15C57.8886 138.15 57.5863 138.244 57.3277 138.433C57.0726 138.618 56.8734 138.889 56.7301 139.246C56.5868 139.602 56.5152 140.034 56.5152 140.54C56.5152 141.054 56.5851 141.491 56.7249 141.851C56.8682 142.211 57.0691 142.485 57.3277 142.674C57.5863 142.863 57.8886 142.957 58.2346 142.957C58.4897 142.957 58.7186 142.905 58.9213 142.8C59.1275 142.695 59.297 142.543 59.4298 142.344C59.5661 142.141 59.6552 141.898 59.6972 141.615H61.8045C61.7695 142.23 61.6018 142.772 61.3013 143.24C61.0042 143.705 60.5936 144.068 60.0694 144.331C59.5451 144.593 58.9248 144.724 58.2084 144.724ZM66.9461 144.724C66.1319 144.724 65.4277 144.551 64.8336 144.205C64.2429 143.855 63.7869 143.369 63.4654 142.747C63.1438 142.122 62.9831 141.397 62.9831 140.572C62.9831 139.74 63.1438 139.013 63.4654 138.391C63.7869 137.766 64.2429 137.28 64.8336 136.934C65.4277 136.584 66.1319 136.41 66.9461 136.41C67.7604 136.41 68.4629 136.584 69.0535 136.934C69.6476 137.28 70.1054 137.766 70.4269 138.391C70.7484 139.013 70.9092 139.74 70.9092 140.572C70.9092 141.397 70.7484 142.122 70.4269 142.747C70.1054 143.369 69.6476 143.855 69.0535 144.205C68.4629 144.551 67.7604 144.724 66.9461 144.724ZM66.9566 142.994C67.3271 142.994 67.6363 142.889 67.8845 142.679C68.1326 142.466 68.3196 142.176 68.4454 141.809C68.5747 141.442 68.6393 141.024 68.6393 140.556C68.6393 140.088 68.5747 139.67 68.4454 139.303C68.3196 138.936 68.1326 138.646 67.8845 138.433C67.6363 138.22 67.3271 138.113 66.9566 138.113C66.5827 138.113 66.2682 138.22 66.013 138.433C65.7614 138.646 65.5709 138.936 65.4416 139.303C65.3158 139.67 65.2529 140.088 65.2529 140.556C65.2529 141.024 65.3158 141.442 65.4416 141.809C65.5709 142.176 65.7614 142.466 66.013 142.679C66.2682 142.889 66.5827 142.994 66.9566 142.994ZM75.4021 144.697C74.7905 144.697 74.2366 144.54 73.7403 144.226C73.2476 143.908 72.8562 143.441 72.5661 142.826C72.2795 142.207 72.1363 141.449 72.1363 140.551C72.1363 139.628 72.2848 138.861 72.5818 138.25C72.8789 137.635 73.2738 137.175 73.7666 136.871C74.2628 136.563 74.8062 136.41 75.3969 136.41C75.8477 136.41 76.2234 136.487 76.5239 136.64C76.828 136.791 77.0726 136.979 77.2578 137.206C77.4465 137.43 77.5898 137.65 77.6877 137.867H77.7558V133.831H79.9837V144.566H77.782V143.277H77.6877C77.5828 143.501 77.4343 143.722 77.2421 143.943C77.0534 144.159 76.807 144.339 76.503 144.483C76.2024 144.626 75.8355 144.697 75.4021 144.697ZM76.1098 142.92C76.4698 142.92 76.7738 142.823 77.0219 142.627C77.2735 142.428 77.4658 142.15 77.5986 141.793C77.7349 141.437 77.803 141.019 77.803 140.54C77.803 140.062 77.7366 139.646 77.6038 139.293C77.471 138.94 77.2788 138.667 77.0272 138.475C76.7755 138.283 76.4698 138.187 76.1098 138.187C75.7428 138.187 75.4336 138.286 75.1819 138.486C74.9303 138.685 74.7398 138.961 74.6105 139.314C74.4812 139.667 74.4166 140.076 74.4166 140.54C74.4166 141.009 74.4812 141.423 74.6105 141.783C74.7433 142.139 74.9338 142.419 75.1819 142.622C75.4336 142.821 75.7428 142.92 76.1098 142.92ZM85.5631 144.724C84.7348 144.724 84.0219 144.556 83.4243 144.22C82.8302 143.881 82.3724 143.403 82.0509 142.784C81.7293 142.162 81.5686 141.426 81.5686 140.577C81.5686 139.749 81.7293 139.022 82.0509 138.396C82.3724 137.771 82.8249 137.283 83.4086 136.934C83.9957 136.584 84.6841 136.41 85.474 136.41C86.0052 136.41 86.4997 136.495 86.9575 136.667C87.4188 136.834 87.8207 137.088 88.1632 137.427C88.5092 137.766 88.7782 138.192 88.9705 138.706C89.1627 139.216 89.2588 139.814 89.2588 140.499V141.112H82.4597V139.728H87.1567C87.1567 139.406 87.0868 139.122 86.947 138.873C86.8072 138.625 86.6133 138.431 86.3651 138.292C86.1205 138.148 85.8357 138.077 85.5107 138.077C85.1717 138.077 84.8711 138.155 84.609 138.313C84.3504 138.466 84.1477 138.674 84.0009 138.936C83.8541 139.195 83.779 139.483 83.7755 139.801V141.117C83.7755 141.515 83.8489 141.86 83.9957 142.15C84.146 142.44 84.3574 142.664 84.63 142.821C84.9026 142.978 85.2258 143.057 85.5998 143.057C85.8479 143.057 86.0751 143.022 86.2812 142.952C86.4874 142.882 86.6639 142.777 86.8107 142.637C86.9575 142.498 87.0693 142.326 87.1462 142.124L89.2116 142.26C89.1068 142.756 88.8918 143.189 88.5668 143.56C88.2453 143.927 87.8294 144.213 87.3192 144.42C86.8125 144.622 86.2271 144.724 85.5631 144.724ZM92.0952 144.703C91.7492 144.703 91.4522 144.58 91.204 144.336C90.9594 144.088 90.8371 143.791 90.8371 143.445C90.8371 143.102 90.9594 142.809 91.204 142.564C91.4522 142.319 91.7492 142.197 92.0952 142.197C92.4307 142.197 92.7242 142.319 92.9759 142.564C93.2275 142.809 93.3533 143.102 93.3533 143.445C93.3533 143.675 93.2939 143.887 93.1751 144.079C93.0597 144.268 92.9077 144.42 92.719 144.535C92.5303 144.647 92.3223 144.703 92.0952 144.703ZM95.2605 136.514H97.4937V144.965C97.4937 145.587 97.3714 146.09 97.1267 146.475C96.8821 146.859 96.5309 147.14 96.0731 147.319C95.6188 147.497 95.0753 147.586 94.4428 147.586C94.3659 147.586 94.2925 147.584 94.2226 147.581C94.1492 147.581 94.0723 147.579 93.9919 147.575V145.83C94.0514 145.833 94.1038 145.835 94.1492 145.835C94.1911 145.838 94.2366 145.84 94.2855 145.84C94.6455 145.84 94.8971 145.763 95.0404 145.61C95.1872 145.459 95.2605 145.232 95.2605 144.928V136.514ZM96.3719 135.477C96.0434 135.477 95.7603 135.366 95.5226 135.146C95.285 134.923 95.1662 134.655 95.1662 134.344C95.1662 134.037 95.285 133.773 95.5226 133.553C95.7603 133.329 96.0434 133.217 96.3719 133.217C96.7074 133.217 96.9922 133.329 97.2263 133.553C97.464 133.773 97.5828 134.037 97.5828 134.344C97.5828 134.655 97.464 134.923 97.2263 135.146C96.9922 135.366 96.7074 135.477 96.3719 135.477ZM106.056 138.811L104.011 138.936C103.976 138.762 103.901 138.604 103.786 138.465C103.671 138.321 103.519 138.208 103.33 138.124C103.145 138.036 102.923 137.993 102.664 137.993C102.318 137.993 102.026 138.066 101.789 138.213C101.551 138.356 101.432 138.548 101.432 138.79C101.432 138.982 101.509 139.144 101.663 139.277C101.817 139.41 102.081 139.516 102.454 139.597L103.912 139.89C104.695 140.051 105.278 140.31 105.663 140.666C106.047 141.023 106.239 141.491 106.239 142.071C106.239 142.599 106.084 143.062 105.773 143.46C105.465 143.859 105.042 144.17 104.504 144.393C103.969 144.614 103.353 144.724 102.654 144.724C101.588 144.724 100.739 144.502 100.106 144.058C99.4769 143.611 99.1082 143.003 98.9999 142.234L101.196 142.118C101.263 142.443 101.424 142.691 101.679 142.863C101.934 143.03 102.261 143.114 102.659 143.114C103.05 143.114 103.365 143.039 103.602 142.889C103.844 142.735 103.966 142.538 103.969 142.297C103.966 142.094 103.88 141.928 103.713 141.799C103.545 141.666 103.286 141.564 102.937 141.495L101.542 141.217C100.756 141.059 100.171 140.787 99.7862 140.399C99.4053 140.011 99.2148 139.516 99.2148 138.915C99.2148 138.398 99.3546 137.953 99.6342 137.579C99.9173 137.205 100.314 136.916 100.824 136.714C101.338 136.511 101.939 136.41 102.627 136.41C103.644 136.41 104.445 136.625 105.028 137.054C105.615 137.484 105.958 138.07 106.056 138.811Z" fill="black" fill-opacity="0.8"/>
<path fill-rule="evenodd" clip-rule="evenodd" d="M123.309 142.725L119.283 138.699L120.232 137.75L123.783 141.301L127.335 137.75L128.284 138.699L124.258 142.725L123.783 143.199L123.309 142.725Z" fill="black" fill-opacity="0.8"/>
</g>
<line x1="544.175" y1="107.359" x2="544.175" y2="648.179" stroke="black" stroke-opacity="0.1" stroke-width="1.34198"/>
<g clip-path="url(#clip5_546_4314)">
<path d="M569.714 144.566H565.909V133.831H569.746C570.826 133.831 571.755 134.045 572.535 134.475C573.314 134.902 573.913 135.515 574.333 136.315C574.756 137.116 574.967 138.073 574.967 139.188C574.967 140.306 574.756 141.267 574.333 142.071C573.913 142.875 573.311 143.492 572.524 143.922C571.741 144.351 570.805 144.566 569.714 144.566ZM568.179 142.622H569.62C570.291 142.622 570.856 142.503 571.313 142.265C571.775 142.024 572.121 141.652 572.351 141.149C572.585 140.642 572.702 139.988 572.702 139.188C572.702 138.395 572.585 137.746 572.351 137.243C572.121 136.74 571.776 136.369 571.319 136.132C570.861 135.894 570.296 135.775 569.625 135.775H568.179V142.622ZM580.35 144.724C579.522 144.724 578.809 144.556 578.211 144.22C577.617 143.881 577.159 143.403 576.838 142.784C576.516 142.162 576.355 141.426 576.355 140.577C576.355 139.749 576.516 139.022 576.838 138.396C577.159 137.771 577.612 137.283 578.195 136.934C578.782 136.584 579.471 136.41 580.261 136.41C580.792 136.41 581.286 136.495 581.744 136.667C582.206 136.834 582.607 137.088 582.95 137.427C583.296 137.766 583.565 138.192 583.757 138.706C583.949 139.216 584.046 139.814 584.046 140.499V141.112H577.247V139.728H581.943C581.943 139.406 581.874 139.122 581.734 138.873C581.594 138.625 581.4 138.431 581.152 138.292C580.907 138.148 580.622 138.077 580.297 138.077C579.958 138.077 579.658 138.155 579.396 138.313C579.137 138.466 578.934 138.674 578.788 138.936C578.641 139.195 578.566 139.483 578.562 139.801V141.117C578.562 141.515 578.636 141.86 578.782 142.15C578.933 142.44 579.144 142.664 579.417 142.821C579.689 142.978 580.013 143.057 580.387 143.057C580.635 143.057 580.862 143.022 581.068 142.952C581.274 142.882 581.451 142.777 581.597 142.637C581.744 142.498 581.856 142.326 581.933 142.124L583.998 142.26C583.894 142.756 583.679 143.189 583.354 143.56C583.032 143.927 582.616 144.213 582.106 144.42C581.599 144.622 581.014 144.724 580.35 144.724ZM589.859 136.514V138.192H585.011V136.514H589.859ZM586.111 134.585H588.345V142.092C588.345 142.298 588.376 142.459 588.439 142.574C588.502 142.686 588.589 142.765 588.701 142.81C588.816 142.856 588.949 142.878 589.099 142.878C589.204 142.878 589.309 142.87 589.414 142.852C589.519 142.831 589.599 142.816 589.655 142.805L590.006 144.467C589.894 144.502 589.737 144.542 589.534 144.587C589.332 144.636 589.085 144.666 588.795 144.676C588.257 144.697 587.785 144.626 587.38 144.462C586.978 144.297 586.665 144.042 586.442 143.696C586.218 143.35 586.108 142.913 586.111 142.386V134.585ZM593.684 144.718C593.17 144.718 592.713 144.629 592.311 144.451C591.909 144.269 591.591 144.002 591.357 143.649C591.126 143.293 591.011 142.849 591.011 142.318C591.011 141.87 591.093 141.495 591.257 141.19C591.421 140.886 591.645 140.642 591.928 140.457C592.211 140.271 592.533 140.132 592.892 140.037C593.256 139.943 593.637 139.876 594.035 139.838C594.504 139.789 594.881 139.744 595.168 139.702C595.454 139.656 595.662 139.59 595.791 139.503C595.921 139.415 595.985 139.286 595.985 139.115V139.083C595.985 138.751 595.88 138.494 595.671 138.313C595.465 138.131 595.171 138.04 594.79 138.04C594.388 138.04 594.068 138.129 593.831 138.307C593.593 138.482 593.436 138.702 593.359 138.968L591.294 138.8C591.398 138.311 591.605 137.888 591.912 137.531C592.22 137.172 592.616 136.895 593.102 136.703C593.591 136.508 594.158 136.41 594.801 136.41C595.248 136.41 595.676 136.462 596.085 136.567C596.497 136.672 596.863 136.834 597.181 137.054C597.502 137.275 597.755 137.558 597.941 137.904C598.126 138.246 598.218 138.657 598.218 139.136V144.566H596.101V143.45H596.038C595.908 143.701 595.735 143.923 595.519 144.116C595.302 144.304 595.042 144.453 594.738 144.561C594.434 144.666 594.082 144.718 593.684 144.718ZM594.324 143.177C594.652 143.177 594.942 143.113 595.194 142.983C595.445 142.85 595.643 142.672 595.786 142.449C595.929 142.225 596.001 141.972 596.001 141.688V140.834C595.931 140.879 595.835 140.921 595.713 140.96C595.594 140.995 595.459 141.028 595.309 141.059C595.159 141.087 595.009 141.114 594.858 141.138C594.708 141.159 594.572 141.178 594.449 141.196C594.187 141.234 593.958 141.295 593.763 141.379C593.567 141.463 593.415 141.577 593.307 141.72C593.198 141.86 593.144 142.034 593.144 142.244C593.144 142.548 593.254 142.781 593.474 142.941C593.698 143.099 593.981 143.177 594.324 143.177ZM600.025 144.566V136.514H602.258V144.566H600.025ZM601.147 135.477C600.815 135.477 600.53 135.366 600.292 135.146C600.058 134.923 599.941 134.655 599.941 134.344C599.941 134.037 600.058 133.773 600.292 133.553C600.53 133.329 600.815 133.217 601.147 133.217C601.479 133.217 601.762 133.329 601.996 133.553C602.234 133.773 602.352 134.037 602.352 134.344C602.352 134.655 602.234 134.923 601.996 135.146C601.762 135.366 601.479 135.477 601.147 135.477ZM606.354 133.831V144.566H604.121V133.831H606.354ZM614.916 138.811L612.871 138.936C612.837 138.762 612.761 138.604 612.646 138.465C612.531 138.321 612.379 138.208 612.19 138.124C612.005 138.036 611.783 137.993 611.524 137.993C611.178 137.993 610.886 138.066 610.649 138.213C610.411 138.356 610.292 138.548 610.292 138.79C610.292 138.982 610.369 139.144 610.523 139.277C610.677 139.41 610.941 139.516 611.315 139.597L612.772 139.89C613.555 140.051 614.138 140.31 614.523 140.666C614.907 141.023 615.099 141.491 615.099 142.071C615.099 142.599 614.944 143.062 614.633 143.46C614.325 143.859 613.902 144.17 613.364 144.393C612.83 144.614 612.213 144.724 611.514 144.724C610.448 144.724 609.599 144.502 608.966 144.058C608.337 143.611 607.968 143.003 607.86 142.234L610.056 142.118C610.123 142.443 610.284 142.691 610.539 142.863C610.794 143.03 611.121 143.114 611.519 143.114C611.91 143.114 612.225 143.039 612.463 142.889C612.704 142.735 612.826 142.538 612.83 142.297C612.826 142.094 612.74 141.928 612.573 141.799C612.405 141.666 612.146 141.564 611.797 141.495L610.402 141.217C609.616 141.059 609.031 140.787 608.646 140.399C608.265 140.011 608.075 139.516 608.075 138.915C608.075 138.398 608.215 137.953 608.494 137.579C608.777 137.205 609.174 136.916 609.684 136.714C610.198 136.511 610.799 136.41 611.488 136.41C612.505 136.41 613.305 136.625 613.888 137.054C614.476 137.484 614.818 138.07 614.916 138.811Z" fill="black" fill-opacity="0.8"/>
</g>
<rect width="118.095" height="42.9435" transform="translate(554.24 161.038)" fill="white"/>
<path d="M565.689 178.191V177.038H573.74V178.191H570.364V187.774H569.064V178.191H565.689ZM575.653 187.774V179.722H576.89V187.774H575.653ZM576.282 178.38C576.041 178.38 575.833 178.298 575.658 178.134C575.487 177.97 575.401 177.772 575.401 177.541C575.401 177.311 575.487 177.113 575.658 176.949C575.833 176.785 576.041 176.703 576.282 176.703C576.523 176.703 576.729 176.785 576.901 176.949C577.075 177.113 577.163 177.311 577.163 177.541C577.163 177.772 577.075 177.97 576.901 178.134C576.729 178.298 576.523 178.38 576.282 178.38ZM582.732 179.722V180.771H578.559V179.722H582.732ZM579.775 177.793H581.012V185.468C581.012 185.817 581.063 186.079 581.164 186.254C581.269 186.425 581.402 186.54 581.563 186.6C581.727 186.656 581.9 186.684 582.081 186.684C582.218 186.684 582.33 186.677 582.417 186.663C582.504 186.645 582.574 186.631 582.627 186.621L582.878 187.732C582.794 187.764 582.677 187.795 582.527 187.826C582.377 187.861 582.186 187.879 581.956 187.879C581.606 187.879 581.264 187.804 580.928 187.653C580.596 187.503 580.32 187.274 580.1 186.967C579.883 186.659 579.775 186.271 579.775 185.803V177.793ZM586.076 177.038V187.774H584.839V177.038H586.076ZM591.792 187.942C591.016 187.942 590.347 187.771 589.784 187.428C589.225 187.082 588.794 186.6 588.49 185.981C588.189 185.359 588.039 184.636 588.039 183.811C588.039 182.986 588.189 182.259 588.49 181.63C588.794 180.998 589.216 180.505 589.758 180.152C590.303 179.796 590.939 179.617 591.666 179.617C592.086 179.617 592.5 179.687 592.909 179.827C593.318 179.967 593.69 180.194 594.025 180.508C594.361 180.819 594.628 181.232 594.827 181.746C595.026 182.259 595.126 182.892 595.126 183.643V184.167H588.919V183.098H593.868C593.868 182.644 593.777 182.238 593.595 181.882C593.417 181.525 593.162 181.244 592.83 181.038C592.501 180.832 592.114 180.729 591.666 180.729C591.173 180.729 590.747 180.851 590.387 181.096C590.031 181.337 589.756 181.651 589.564 182.039C589.372 182.427 589.276 182.843 589.276 183.287V184C589.276 184.608 589.381 185.123 589.59 185.546C589.804 185.966 590.099 186.285 590.476 186.505C590.854 186.722 591.292 186.83 591.792 186.83C592.117 186.83 592.411 186.785 592.673 186.694C592.938 186.6 593.167 186.46 593.359 186.275C593.552 186.086 593.7 185.852 593.805 185.572L595 185.908C594.874 186.313 594.663 186.67 594.366 186.977C594.069 187.281 593.702 187.519 593.265 187.69C592.828 187.858 592.337 187.942 591.792 187.942Z" fill="black" fill-opacity="0.8"/>
<rect width="185.194" height="42.9435" transform="translate(672.334 161.038)" fill="white"/>
<path d="M675.018 163.051H854.844C855.956 163.051 856.857 163.952 856.857 165.064V199.956C856.857 201.067 855.956 201.969 854.844 201.969H675.018C673.906 201.969 673.005 201.067 673.005 199.956V165.064C673.005 163.952 673.906 163.051 675.018 163.051Z" stroke="black" stroke-opacity="0.1" stroke-width="1.34198"/>
<rect width="118.095" height="42.9435" transform="translate(554.24 214.718)" fill="white"/>
<path d="M569.589 241.453H566.276V230.718H569.735C570.777 230.718 571.668 230.932 572.409 231.362C573.15 231.789 573.718 232.402 574.113 233.202C574.508 233.999 574.705 234.953 574.705 236.065C574.705 237.183 574.506 238.146 574.107 238.953C573.709 239.757 573.129 240.375 572.367 240.809C571.605 241.239 570.679 241.453 569.589 241.453ZM567.576 240.3H569.505C570.392 240.3 571.128 240.129 571.712 239.786C572.295 239.444 572.73 238.956 573.017 238.324C573.304 237.691 573.447 236.938 573.447 236.065C573.447 235.198 573.305 234.452 573.022 233.826C572.739 233.197 572.316 232.715 571.754 232.379C571.191 232.04 570.49 231.871 569.652 231.871H567.576V240.3ZM580.168 241.621C579.392 241.621 578.723 241.45 578.16 241.107C577.601 240.761 577.169 240.279 576.865 239.661C576.565 239.039 576.414 238.315 576.414 237.49C576.414 236.666 576.565 235.939 576.865 235.31C577.169 234.677 577.592 234.184 578.134 233.831C578.679 233.475 579.315 233.297 580.042 233.297C580.461 233.297 580.875 233.367 581.284 233.506C581.693 233.646 582.065 233.873 582.401 234.188C582.736 234.499 583.004 234.911 583.203 235.425C583.402 235.939 583.502 236.571 583.502 237.323V237.847H577.295V236.777H582.244C582.244 236.323 582.153 235.918 581.971 235.561C581.793 235.205 581.538 234.923 581.206 234.717C580.877 234.511 580.489 234.408 580.042 234.408C579.549 234.408 579.123 234.53 578.763 234.775C578.406 235.016 578.132 235.331 577.94 235.719C577.748 236.106 577.651 236.522 577.651 236.966V237.679C577.651 238.287 577.756 238.803 577.966 239.226C578.179 239.645 578.474 239.965 578.852 240.185C579.229 240.402 579.668 240.51 580.168 240.51C580.493 240.51 580.786 240.464 581.048 240.374C581.314 240.279 581.543 240.139 581.735 239.954C581.927 239.765 582.076 239.531 582.181 239.252L583.376 239.587C583.25 239.993 583.039 240.349 582.742 240.657C582.445 240.961 582.078 241.198 581.641 241.37C581.204 241.537 580.713 241.621 580.168 241.621ZM591.161 235.205L590.05 235.519C589.98 235.334 589.877 235.154 589.74 234.979C589.607 234.801 589.426 234.654 589.195 234.539C588.964 234.424 588.669 234.366 588.309 234.366C587.816 234.366 587.406 234.48 587.077 234.707C586.752 234.93 586.59 235.215 586.59 235.561C586.59 235.869 586.702 236.112 586.925 236.29C587.149 236.468 587.498 236.617 587.974 236.736L589.169 237.029C589.889 237.204 590.425 237.471 590.778 237.831C591.131 238.188 591.308 238.647 591.308 239.21C591.308 239.671 591.175 240.083 590.909 240.447C590.647 240.81 590.28 241.097 589.808 241.307C589.337 241.516 588.788 241.621 588.162 241.621C587.341 241.621 586.661 241.443 586.123 241.086C585.585 240.73 585.244 240.209 585.101 239.524L586.275 239.231C586.387 239.664 586.598 239.989 586.909 240.206C587.224 240.422 587.635 240.531 588.141 240.531C588.718 240.531 589.176 240.408 589.515 240.164C589.857 239.916 590.029 239.619 590.029 239.273C590.029 238.993 589.931 238.759 589.735 238.57C589.539 238.378 589.239 238.235 588.833 238.14L587.491 237.826C586.754 237.651 586.212 237.38 585.866 237.013C585.524 236.643 585.353 236.18 585.353 235.624C585.353 235.17 585.48 234.768 585.735 234.418C585.994 234.069 586.345 233.795 586.789 233.595C587.236 233.396 587.743 233.297 588.309 233.297C589.106 233.297 589.732 233.471 590.186 233.821C590.644 234.17 590.969 234.632 591.161 235.205ZM596.515 241.621C595.76 241.621 595.11 241.443 594.565 241.086C594.02 240.73 593.6 240.239 593.307 239.613C593.013 238.988 592.866 238.273 592.866 237.469C592.866 236.652 593.017 235.93 593.317 235.304C593.621 234.675 594.044 234.184 594.586 233.831C595.131 233.475 595.767 233.297 596.494 233.297C597.06 233.297 597.57 233.402 598.025 233.611C598.479 233.821 598.851 234.114 599.141 234.492C599.431 234.869 599.611 235.31 599.681 235.813H598.444C598.35 235.446 598.14 235.121 597.815 234.838C597.493 234.551 597.06 234.408 596.515 234.408C596.033 234.408 595.61 234.534 595.246 234.785C594.886 235.034 594.605 235.385 594.402 235.839C594.203 236.29 594.103 236.819 594.103 237.427C594.103 238.05 594.201 238.591 594.397 239.053C594.596 239.514 594.876 239.872 595.236 240.127C595.599 240.382 596.026 240.51 596.515 240.51C596.836 240.51 597.128 240.454 597.39 240.342C597.652 240.23 597.874 240.07 598.056 239.86C598.238 239.65 598.367 239.399 598.444 239.105H599.681C599.611 239.58 599.438 240.008 599.162 240.389C598.889 240.767 598.528 241.067 598.077 241.291C597.63 241.511 597.109 241.621 596.515 241.621ZM601.563 241.453V233.402H602.759V234.618H602.842C602.989 234.219 603.255 233.896 603.639 233.648C604.024 233.4 604.457 233.276 604.939 233.276C605.03 233.276 605.144 233.277 605.28 233.281C605.416 233.284 605.519 233.29 605.589 233.297V234.555C605.547 234.544 605.451 234.529 605.301 234.508C605.154 234.483 604.999 234.471 604.834 234.471C604.443 234.471 604.094 234.553 603.786 234.717C603.482 234.878 603.241 235.102 603.063 235.388C602.888 235.671 602.801 235.995 602.801 236.358V241.453H601.563ZM607.13 241.453V233.402H608.367V241.453H607.13ZM607.759 232.06C607.518 232.06 607.31 231.977 607.135 231.813C606.964 231.649 606.878 231.451 606.878 231.221C606.878 230.99 606.964 230.793 607.135 230.628C607.31 230.464 607.518 230.382 607.759 230.382C608 230.382 608.206 230.464 608.377 230.628C608.552 230.793 608.639 230.99 608.639 231.221C608.639 231.451 608.552 231.649 608.377 231.813C608.206 231.977 608 232.06 607.759 232.06ZM610.706 244.473V233.402H611.902V234.681H612.048C612.139 234.541 612.265 234.363 612.426 234.146C612.59 233.926 612.824 233.73 613.128 233.559C613.436 233.384 613.852 233.297 614.376 233.297C615.054 233.297 615.652 233.466 616.169 233.805C616.686 234.144 617.09 234.625 617.38 235.247C617.67 235.869 617.815 236.603 617.815 237.448C617.815 238.301 617.67 239.04 617.38 239.666C617.09 240.288 616.688 240.77 616.174 241.113C615.66 241.452 615.068 241.621 614.397 241.621C613.88 241.621 613.466 241.536 613.155 241.364C612.844 241.19 612.604 240.992 612.436 240.772C612.269 240.548 612.139 240.363 612.048 240.216H611.944V244.473H610.706ZM611.923 237.427C611.923 238.036 612.012 238.572 612.19 239.037C612.368 239.498 612.629 239.86 612.971 240.122C613.314 240.381 613.733 240.51 614.229 240.51C614.746 240.51 615.178 240.374 615.524 240.101C615.873 239.825 616.136 239.454 616.31 238.99C616.489 238.521 616.578 238.001 616.578 237.427C616.578 236.861 616.49 236.351 616.316 235.897C616.144 235.439 615.884 235.077 615.534 234.812C615.189 234.543 614.753 234.408 614.229 234.408C613.726 234.408 613.303 234.536 612.961 234.791C612.618 235.042 612.36 235.395 612.185 235.85C612.01 236.3 611.923 236.826 611.923 237.427ZM623.278 233.402V234.45H619.105V233.402H623.278ZM620.321 231.472H621.558V239.147C621.558 239.496 621.609 239.758 621.71 239.933C621.815 240.104 621.948 240.22 622.109 240.279C622.273 240.335 622.446 240.363 622.628 240.363C622.764 240.363 622.876 240.356 622.963 240.342C623.05 240.325 623.12 240.311 623.173 240.3L623.424 241.411C623.34 241.443 623.223 241.474 623.073 241.506C622.923 241.541 622.732 241.558 622.502 241.558C622.152 241.558 621.81 241.483 621.474 241.333C621.142 241.183 620.866 240.954 620.646 240.646C620.429 240.339 620.321 239.951 620.321 239.482V231.472ZM625.212 241.453V233.402H626.449V241.453H625.212ZM625.841 232.06C625.6 232.06 625.392 231.977 625.218 231.813C625.046 231.649 624.961 231.451 624.961 231.221C624.961 230.99 625.046 230.793 625.218 230.628C625.392 230.464 625.6 230.382 625.841 230.382C626.082 230.382 626.289 230.464 626.46 230.628C626.635 230.793 626.722 230.99 626.722 231.221C626.722 231.451 626.635 231.649 626.46 231.813C626.289 231.977 626.082 232.06 625.841 232.06ZM632.06 241.621C631.333 241.621 630.696 241.448 630.147 241.102C629.602 240.756 629.175 240.272 628.868 239.65C628.564 239.028 628.412 238.301 628.412 237.469C628.412 236.631 628.564 235.899 628.868 235.273C629.175 234.647 629.602 234.162 630.147 233.816C630.696 233.47 631.333 233.297 632.06 233.297C632.787 233.297 633.423 233.47 633.968 233.816C634.517 234.162 634.943 234.647 635.247 235.273C635.555 235.899 635.709 236.631 635.709 237.469C635.709 238.301 635.555 239.028 635.247 239.65C634.943 240.272 634.517 240.756 633.968 241.102C633.423 241.448 632.787 241.621 632.06 241.621ZM632.06 240.51C632.612 240.51 633.067 240.368 633.423 240.085C633.78 239.802 634.044 239.43 634.215 238.969C634.386 238.507 634.472 238.008 634.472 237.469C634.472 236.931 634.386 236.43 634.215 235.965C634.044 235.5 633.78 235.124 633.423 234.838C633.067 234.551 632.612 234.408 632.06 234.408C631.508 234.408 631.054 234.551 630.697 234.838C630.341 235.124 630.077 235.5 629.906 235.965C629.734 236.43 629.649 236.931 629.649 237.469C629.649 238.008 629.734 238.507 629.906 238.969C630.077 239.43 630.341 239.802 630.697 240.085C631.054 240.368 631.508 240.51 632.06 240.51ZM638.908 236.61V241.453H637.671V233.402H638.866V234.66H638.971C639.16 234.251 639.446 233.922 639.831 233.674C640.215 233.422 640.711 233.297 641.32 233.297C641.865 233.297 642.342 233.409 642.751 233.632C643.16 233.852 643.478 234.188 643.705 234.639C643.932 235.086 644.045 235.652 644.045 236.337V241.453H642.808V236.421C642.808 235.788 642.644 235.296 642.316 234.943C641.987 234.586 641.536 234.408 640.963 234.408C640.568 234.408 640.215 234.494 639.904 234.665C639.597 234.836 639.354 235.086 639.176 235.414C638.997 235.743 638.908 236.141 638.908 236.61Z" fill="black" fill-opacity="0.8"/>
<rect width="185.194" height="85.887" transform="translate(672.334 214.718)" fill="white"/>
<path d="M675.018 216.731H854.844C855.956 216.731 856.857 217.632 856.857 218.743V296.579C856.857 297.69 855.956 298.592 854.844 298.592H675.018C673.906 298.592 673.005 297.69 673.005 296.579V218.743C673.005 217.632 673.906 216.731 675.018 216.731Z" stroke="black" stroke-opacity="0.1" stroke-width="1.34198"/>
<rect width="118.095" height="42.9435" transform="translate(554.24 311.34)" fill="white"/>
<path d="M566.276 338.076V327.34H572.755V328.494H567.576V332.121H572.419V333.275H567.576V336.923H572.839V338.076H566.276ZM578.045 338.244C577.374 338.244 576.781 338.075 576.268 337.736C575.754 337.393 575.352 336.911 575.062 336.289C574.772 335.663 574.627 334.924 574.627 334.071C574.627 333.226 574.772 332.492 575.062 331.87C575.352 331.248 575.756 330.767 576.273 330.428C576.79 330.089 577.388 329.92 578.066 329.92C578.59 329.92 579.004 330.007 579.308 330.182C579.616 330.353 579.85 330.549 580.01 330.769C580.175 330.985 580.302 331.164 580.393 331.303H580.498V327.34H581.735V338.076H580.54V336.839H580.393C580.302 336.986 580.173 337.171 580.005 337.395C579.837 337.615 579.598 337.812 579.287 337.987C578.976 338.158 578.562 338.244 578.045 338.244ZM578.212 337.133C578.709 337.133 579.128 337.003 579.47 336.745C579.813 336.483 580.073 336.121 580.252 335.66C580.43 335.195 580.519 334.658 580.519 334.05C580.519 333.449 580.432 332.923 580.257 332.472C580.082 332.018 579.823 331.665 579.481 331.414C579.138 331.158 578.716 331.031 578.212 331.031C577.688 331.031 577.251 331.165 576.902 331.435C576.556 331.7 576.296 332.062 576.121 332.52C575.95 332.974 575.864 333.484 575.864 334.05C575.864 334.624 575.951 335.144 576.126 335.613C576.304 336.077 576.566 336.448 576.912 336.724C577.262 336.996 577.695 337.133 578.212 337.133ZM584.246 338.076V330.024H585.484V338.076H584.246ZM584.876 328.682C584.634 328.682 584.426 328.6 584.252 328.436C584.08 328.272 583.995 328.074 583.995 327.844C583.995 327.613 584.08 327.416 584.252 327.251C584.426 327.087 584.634 327.005 584.876 327.005C585.117 327.005 585.323 327.087 585.494 327.251C585.669 327.416 585.756 327.613 585.756 327.844C585.756 328.074 585.669 328.272 585.494 328.436C585.323 328.6 585.117 328.682 584.876 328.682ZM591.325 330.024V331.073H587.152V330.024H591.325ZM588.369 328.095H589.606V335.77C589.606 336.119 589.656 336.381 589.758 336.556C589.863 336.727 589.995 336.843 590.156 336.902C590.32 336.958 590.493 336.986 590.675 336.986C590.811 336.986 590.923 336.979 591.011 336.965C591.098 336.948 591.168 336.934 591.22 336.923L591.472 338.034C591.388 338.066 591.271 338.097 591.121 338.129C590.97 338.164 590.78 338.181 590.549 338.181C590.2 338.181 589.857 338.106 589.522 337.956C589.19 337.805 588.914 337.577 588.694 337.269C588.477 336.961 588.369 336.574 588.369 336.105V328.095ZM596.444 338.244C595.718 338.244 595.08 338.071 594.531 337.725C593.986 337.379 593.56 336.895 593.252 336.273C592.948 335.651 592.796 334.924 592.796 334.092C592.796 333.254 592.948 332.521 593.252 331.896C593.56 331.27 593.986 330.785 594.531 330.439C595.08 330.093 595.718 329.92 596.444 329.92C597.171 329.92 597.807 330.093 598.353 330.439C598.901 330.785 599.328 331.27 599.632 331.896C599.939 332.521 600.093 333.254 600.093 334.092C600.093 334.924 599.939 335.651 599.632 336.273C599.328 336.895 598.901 337.379 598.353 337.725C597.807 338.071 597.171 338.244 596.444 338.244ZM596.444 337.133C596.997 337.133 597.451 336.991 597.807 336.708C598.164 336.425 598.428 336.053 598.599 335.592C598.77 335.13 598.856 334.63 598.856 334.092C598.856 333.554 598.77 333.053 598.599 332.588C598.428 332.123 598.164 331.747 597.807 331.461C597.451 331.174 596.997 331.031 596.444 331.031C595.892 331.031 595.438 331.174 595.081 331.461C594.725 331.747 594.461 332.123 594.29 332.588C594.119 333.053 594.033 333.554 594.033 334.092C594.033 334.63 594.119 335.13 594.29 335.592C594.461 336.053 594.725 336.425 595.081 336.708C595.438 336.991 595.892 337.133 596.444 337.133ZM602.055 338.076V330.024H603.25V331.241H603.334C603.481 330.842 603.747 330.519 604.131 330.271C604.516 330.023 604.949 329.899 605.431 329.899C605.522 329.899 605.636 329.9 605.772 329.904C605.908 329.907 606.011 329.913 606.081 329.92V331.178C606.039 331.167 605.943 331.151 605.793 331.131C605.646 331.106 605.491 331.094 605.326 331.094C604.935 331.094 604.585 331.176 604.278 331.34C603.974 331.501 603.733 331.725 603.554 332.011C603.38 332.294 603.292 332.618 603.292 332.981V338.076H602.055Z" fill="black" fill-opacity="0.8"/>
<g clip-path="url(#clip6_546_4314)">
<rect x="673.005" y="313.353" width="139.809" height="38.9176" rx="2.01298" stroke="black" stroke-opacity="0.1" stroke-width="1.34198"/>
<g clip-path="url(#clip7_546_4314)">
<g clip-path="url(#clip8_546_4314)">
<rect x="683.07" y="322.076" width="21.4718" height="21.4718" rx="4.02595" fill="#0D99FF"/>
<path d="M715.277 311.34V354.284H672.334L715.277 311.34Z" fill="#9747FF"/>
<path d="M691.421 332.812H691.122C689.64 332.812 688.438 331.611 688.438 330.128C688.438 328.646 689.64 327.444 691.122 327.444C692.605 327.444 693.806 328.646 693.806 330.128V332.812V335.496C693.806 336.978 695.008 338.18 696.49 338.18C697.973 338.18 699.174 336.978 699.174 335.496C699.174 334.014 697.973 332.812 696.49 332.812H696.192" stroke="white" stroke-width="1.34198"/>
</g>
</g>
<path d="M723.623 327.076H724.923V334.185C724.923 334.919 724.75 335.574 724.404 336.15C724.061 336.724 723.577 337.176 722.952 337.508C722.326 337.837 721.592 338.001 720.75 338.001C719.908 338.001 719.174 337.837 718.548 337.508C717.923 337.176 717.437 336.724 717.091 336.15C716.749 335.574 716.577 334.919 716.577 334.185V327.076H717.877V334.08C717.877 334.604 717.993 335.071 718.223 335.479C718.454 335.885 718.783 336.205 719.209 336.439C719.639 336.669 720.153 336.785 720.75 336.785C721.348 336.785 721.861 336.669 722.291 336.439C722.721 336.205 723.05 335.885 723.277 335.479C723.507 335.071 723.623 334.604 723.623 334.08V327.076ZM728.662 332.968V337.812H727.425V329.76H728.62V331.018H728.725C728.914 330.609 729.2 330.281 729.585 330.033C729.969 329.781 730.466 329.655 731.074 329.655C731.619 329.655 732.096 329.767 732.505 329.991C732.914 330.211 733.232 330.547 733.459 330.997C733.686 331.445 733.8 332.011 733.8 332.696V337.812H732.562V332.78C732.562 332.147 732.398 331.654 732.07 331.301C731.741 330.945 731.29 330.767 730.717 330.767C730.322 330.767 729.969 330.852 729.658 331.024C729.351 331.195 729.108 331.445 728.93 331.773C728.751 332.102 728.662 332.5 728.662 332.968ZM736.134 337.812V329.76H737.371V337.812H736.134ZM736.763 328.418C736.522 328.418 736.314 328.336 736.139 328.172C735.968 328.008 735.882 327.81 735.882 327.58C735.882 327.349 735.968 327.151 736.139 326.987C736.314 326.823 736.522 326.741 736.763 326.741C737.004 326.741 737.21 326.823 737.382 326.987C737.556 327.151 737.644 327.349 737.644 327.58C737.644 327.81 737.556 328.008 737.382 328.172C737.21 328.336 737.004 328.418 736.763 328.418ZM746.295 329.76L743.317 337.812H742.059L739.082 329.76H740.424L742.646 336.177H742.73L744.953 329.76H746.295ZM751.089 337.98C750.313 337.98 749.644 337.809 749.082 337.466C748.522 337.12 748.091 336.638 747.787 336.019C747.486 335.397 747.336 334.674 747.336 333.849C747.336 333.024 747.486 332.297 747.787 331.668C748.091 331.036 748.514 330.543 749.055 330.19C749.601 329.834 750.237 329.655 750.963 329.655C751.383 329.655 751.797 329.725 752.206 329.865C752.615 330.005 752.987 330.232 753.322 330.547C753.658 330.858 753.925 331.27 754.124 331.784C754.324 332.297 754.423 332.93 754.423 333.681V334.206H748.217V333.136H753.165C753.165 332.682 753.074 332.276 752.893 331.92C752.714 331.564 752.459 331.282 752.127 331.076C751.799 330.87 751.411 330.767 750.963 330.767C750.471 330.767 750.044 330.889 749.684 331.134C749.328 331.375 749.054 331.689 748.861 332.077C748.669 332.465 748.573 332.881 748.573 333.325V334.038C748.573 334.646 748.678 335.161 748.888 335.584C749.101 336.004 749.396 336.323 749.774 336.544C750.151 336.76 750.59 336.869 751.089 336.869C751.414 336.869 751.708 336.823 751.97 336.732C752.236 336.638 752.464 336.498 752.657 336.313C752.849 336.124 752.997 335.89 753.102 335.61L754.297 335.946C754.172 336.351 753.96 336.708 753.663 337.015C753.366 337.319 752.999 337.557 752.562 337.728C752.125 337.896 751.634 337.98 751.089 337.98ZM756.379 337.812V329.76H757.574V330.976H757.658C757.805 330.578 758.07 330.255 758.455 330.007C758.839 329.759 759.273 329.634 759.755 329.634C759.846 329.634 759.959 329.636 760.096 329.64C760.232 329.643 760.335 329.648 760.405 329.655V330.914C760.363 330.903 760.267 330.887 760.117 330.866C759.97 330.842 759.814 330.83 759.65 330.83C759.259 330.83 758.909 330.912 758.602 331.076C758.298 331.237 758.057 331.46 757.878 331.747C757.704 332.03 757.616 332.353 757.616 332.717V337.812H756.379ZM767.649 331.564L766.537 331.878C766.467 331.693 766.364 331.513 766.228 331.338C766.095 331.16 765.914 331.013 765.683 330.898C765.452 330.782 765.157 330.725 764.797 330.725C764.304 330.725 763.894 330.838 763.565 331.066C763.24 331.289 763.078 331.574 763.078 331.92C763.078 332.228 763.189 332.47 763.413 332.649C763.637 332.827 763.986 332.975 764.462 333.094L765.657 333.388C766.377 333.563 766.913 333.83 767.266 334.19C767.619 334.546 767.795 335.006 767.795 335.569C767.795 336.03 767.663 336.442 767.397 336.806C767.135 337.169 766.768 337.456 766.296 337.665C765.824 337.875 765.276 337.98 764.65 337.98C763.829 337.98 763.149 337.802 762.611 337.445C762.073 337.089 761.732 336.568 761.589 335.883L762.763 335.59C762.875 336.023 763.086 336.348 763.397 336.565C763.712 336.781 764.123 336.89 764.629 336.89C765.206 336.89 765.664 336.767 766.003 336.523C766.345 336.274 766.516 335.977 766.516 335.631C766.516 335.352 766.419 335.118 766.223 334.929C766.027 334.737 765.727 334.593 765.321 334.499L763.979 334.185C763.242 334.01 762.7 333.739 762.354 333.372C762.012 333.002 761.84 332.539 761.84 331.983C761.84 331.529 761.968 331.127 762.223 330.777C762.482 330.428 762.833 330.153 763.277 329.954C763.724 329.755 764.231 329.655 764.797 329.655C765.594 329.655 766.219 329.83 766.674 330.18C767.131 330.529 767.457 330.99 767.649 331.564ZM772.101 338.001C771.591 338.001 771.128 337.905 770.712 337.713C770.296 337.517 769.966 337.236 769.721 336.869C769.476 336.498 769.354 336.051 769.354 335.527C769.354 335.065 769.445 334.691 769.627 334.405C769.808 334.115 770.051 333.888 770.355 333.723C770.659 333.559 770.995 333.437 771.362 333.356C771.732 333.272 772.105 333.206 772.478 333.157C772.968 333.094 773.364 333.047 773.668 333.016C773.976 332.981 774.2 332.923 774.339 332.843C774.483 332.762 774.554 332.622 774.554 332.423V332.381C774.554 331.864 774.413 331.462 774.13 331.176C773.85 330.889 773.426 330.746 772.856 330.746C772.265 330.746 771.802 330.875 771.467 331.134C771.131 331.392 770.895 331.668 770.759 331.962L769.585 331.543C769.794 331.053 770.074 330.672 770.424 330.4C770.777 330.124 771.161 329.931 771.577 329.823C771.996 329.711 772.409 329.655 772.814 329.655C773.073 329.655 773.37 329.687 773.705 329.75C774.044 329.809 774.371 329.933 774.685 330.122C775.003 330.311 775.267 330.596 775.477 330.976C775.687 331.357 775.791 331.868 775.791 332.507V337.812H774.554V336.722H774.491C774.408 336.897 774.268 337.084 774.072 337.283C773.876 337.482 773.616 337.651 773.291 337.791C772.966 337.931 772.569 338.001 772.101 338.001ZM772.29 336.89C772.779 336.89 773.191 336.793 773.527 336.601C773.866 336.409 774.121 336.161 774.292 335.857C774.467 335.553 774.554 335.233 774.554 334.898V333.765C774.502 333.828 774.387 333.886 774.208 333.938C774.034 333.987 773.831 334.031 773.6 334.069C773.373 334.104 773.151 334.136 772.935 334.164C772.721 334.188 772.548 334.209 772.416 334.227C772.094 334.268 771.793 334.337 771.514 334.431C771.238 334.522 771.014 334.66 770.843 334.845C770.675 335.027 770.591 335.275 770.591 335.59C770.591 336.019 770.75 336.344 771.068 336.565C771.39 336.781 771.797 336.89 772.29 336.89ZM779.36 327.076V337.812H778.123V327.076H779.36Z" fill="black" fill-opacity="0.8"/>
<path fill-rule="evenodd" clip-rule="evenodd" d="M796.908 335.971L792.882 331.945L793.831 330.996L797.382 334.547L800.934 330.996L801.883 331.945L797.857 335.971L797.382 336.445L796.908 335.971Z" fill="black" fill-opacity="0.8"/>
</g>
<rect x="565.647" y="388.505" width="138.866" height="39.4458" rx="7.38092" stroke="black" stroke-opacity="0.8" stroke-width="1.34198"/>
<path d="M585.75 413.227H582.275V402.492H585.86C586.912 402.492 587.816 402.706 588.571 403.136C589.326 403.563 589.904 404.176 590.306 404.976C590.711 405.773 590.914 406.729 590.914 407.844C590.914 408.962 590.709 409.923 590.301 410.727C589.895 411.531 589.308 412.149 588.539 412.583C587.77 413.013 586.841 413.227 585.75 413.227ZM583.895 411.812H585.661C586.479 411.812 587.159 411.658 587.7 411.351C588.242 411.04 588.648 410.591 588.917 410.004C589.186 409.413 589.32 408.693 589.32 407.844C589.32 407.002 589.186 406.287 588.917 405.7C588.651 405.113 588.254 404.667 587.727 404.363C587.199 404.059 586.544 403.907 585.761 403.907H583.895V411.812ZM596.268 413.39C595.513 413.39 594.854 413.217 594.292 412.871C593.729 412.525 593.292 412.041 592.981 411.419C592.67 410.797 592.514 410.07 592.514 409.238C592.514 408.403 592.67 407.673 592.981 407.047C593.292 406.421 593.729 405.936 594.292 405.59C594.854 405.244 595.513 405.071 596.268 405.071C597.023 405.071 597.681 405.244 598.244 405.59C598.807 405.936 599.244 406.421 599.555 407.047C599.866 407.673 600.021 408.403 600.021 409.238C600.021 410.07 599.866 410.797 599.555 411.419C599.244 412.041 598.807 412.525 598.244 412.871C597.681 413.217 597.023 413.39 596.268 413.39ZM596.273 412.074C596.762 412.074 597.168 411.945 597.489 411.686C597.811 411.428 598.048 411.083 598.202 410.654C598.359 410.224 598.438 409.75 598.438 409.233C598.438 408.719 598.359 408.247 598.202 407.818C598.048 407.384 597.811 407.036 597.489 406.774C597.168 406.512 596.762 406.381 596.273 406.381C595.78 406.381 595.371 406.512 595.046 406.774C594.725 407.036 594.486 407.384 594.328 407.818C594.174 408.247 594.098 408.719 594.098 409.233C594.098 409.75 594.174 410.224 594.328 410.654C594.486 411.083 594.725 411.428 595.046 411.686C595.371 411.945 595.78 412.074 596.273 412.074ZM603.345 413.227L600.976 405.176H602.596L604.173 411.089H604.252L605.835 405.176H607.455L609.028 411.062H609.106L610.674 405.176H612.293L609.929 413.227H608.33L606.695 407.414H606.574L604.939 413.227H603.345ZM615.422 408.447V413.227H613.855V405.176H615.359V406.486H615.459C615.644 406.06 615.934 405.717 616.329 405.459C616.727 405.2 617.229 405.071 617.833 405.071C618.382 405.071 618.863 405.186 619.275 405.417C619.687 405.644 620.007 405.983 620.234 406.434C620.462 406.884 620.575 407.442 620.575 408.106V413.227H619.008V408.295C619.008 407.711 618.856 407.255 618.552 406.926C618.248 406.594 617.83 406.428 617.299 406.428C616.935 406.428 616.612 406.507 616.329 406.664C616.049 406.822 615.828 407.052 615.663 407.356C615.502 407.657 615.422 408.02 615.422 408.447ZM624.318 402.492V413.227H622.751V402.492H624.318ZM629.893 413.39C629.138 413.39 628.479 413.217 627.916 412.871C627.354 412.525 626.917 412.041 626.606 411.419C626.295 410.797 626.139 410.07 626.139 409.238C626.139 408.403 626.295 407.673 626.606 407.047C626.917 406.421 627.354 405.936 627.916 405.59C628.479 405.244 629.138 405.071 629.893 405.071C630.647 405.071 631.306 405.244 631.869 405.59C632.431 405.936 632.868 406.421 633.179 407.047C633.49 407.673 633.646 408.403 633.646 409.238C633.646 410.07 633.49 410.797 633.179 411.419C632.868 412.041 632.431 412.525 631.869 412.871C631.306 413.217 630.647 413.39 629.893 413.39ZM629.898 412.074C630.387 412.074 630.792 411.945 631.114 411.686C631.435 411.428 631.673 411.083 631.827 410.654C631.984 410.224 632.063 409.75 632.063 409.233C632.063 408.719 631.984 408.247 631.827 407.818C631.673 407.384 631.435 407.036 631.114 406.774C630.792 406.512 630.387 406.381 629.898 406.381C629.405 406.381 628.996 406.512 628.671 406.774C628.35 407.036 628.11 407.384 627.953 407.818C627.799 408.247 627.722 408.719 627.722 409.233C627.722 409.75 627.799 410.224 627.953 410.654C628.11 411.083 628.35 411.428 628.671 411.686C628.996 411.945 629.405 412.074 629.898 412.074ZM637.812 413.406C637.302 413.406 636.841 413.311 636.429 413.123C636.016 412.93 635.689 412.653 635.448 412.289C635.211 411.926 635.092 411.48 635.092 410.952C635.092 410.498 635.179 410.124 635.354 409.831C635.529 409.537 635.765 409.305 636.062 409.133C636.359 408.962 636.691 408.833 637.058 408.745C637.425 408.658 637.799 408.592 638.179 408.546C638.662 408.49 639.053 408.445 639.354 408.41C639.654 408.371 639.873 408.31 640.009 408.226C640.145 408.143 640.213 408.006 640.213 407.818V407.781C640.213 407.323 640.084 406.968 639.825 406.717C639.57 406.465 639.189 406.339 638.683 406.339C638.155 406.339 637.739 406.456 637.435 406.691C637.135 406.921 636.927 407.178 636.811 407.461L635.338 407.126C635.513 406.636 635.768 406.241 636.104 405.941C636.443 405.637 636.832 405.417 637.273 405.28C637.713 405.141 638.176 405.071 638.662 405.071C638.983 405.071 639.324 405.109 639.684 405.186C640.047 405.259 640.386 405.396 640.701 405.595C641.019 405.794 641.279 406.079 641.482 406.449C641.685 406.816 641.786 407.293 641.786 407.88V413.227H640.255V412.127H640.192C640.091 412.329 639.939 412.528 639.736 412.724C639.534 412.92 639.273 413.082 638.955 413.212C638.637 413.341 638.256 413.406 637.812 413.406ZM638.153 412.148C638.587 412.148 638.957 412.062 639.265 411.891C639.576 411.719 639.811 411.496 639.972 411.22C640.137 410.94 640.219 410.641 640.219 410.323V409.285C640.163 409.341 640.054 409.394 639.894 409.443C639.736 409.488 639.556 409.528 639.354 409.563C639.151 409.595 638.954 409.624 638.761 409.652C638.569 409.677 638.408 409.698 638.279 409.715C637.975 409.754 637.697 409.818 637.446 409.909C637.197 410 636.998 410.131 636.848 410.302C636.701 410.47 636.628 410.694 636.628 410.973C636.628 411.361 636.771 411.655 637.058 411.854C637.344 412.05 637.709 412.148 638.153 412.148ZM646.962 413.385C646.312 413.385 645.732 413.219 645.221 412.887C644.715 412.551 644.316 412.074 644.026 411.456C643.74 410.834 643.596 410.087 643.596 409.217C643.596 408.347 643.741 407.603 644.031 406.984C644.325 406.366 644.727 405.892 645.237 405.563C645.747 405.235 646.326 405.071 646.972 405.071C647.472 405.071 647.874 405.155 648.178 405.322C648.485 405.487 648.723 405.679 648.891 405.899C649.062 406.119 649.195 406.313 649.289 406.481H649.384V402.492H650.951V413.227H649.42V411.975H649.289C649.195 412.146 649.059 412.342 648.88 412.562C648.706 412.782 648.464 412.974 648.157 413.138C647.849 413.303 647.451 413.385 646.962 413.385ZM647.308 412.048C647.759 412.048 648.139 411.929 648.451 411.692C648.765 411.45 649.003 411.117 649.163 410.69C649.328 410.264 649.41 409.768 649.41 409.201C649.41 408.642 649.329 408.153 649.169 407.734C649.008 407.314 648.772 406.988 648.461 406.753C648.15 406.519 647.766 406.402 647.308 406.402C646.836 406.402 646.443 406.525 646.128 406.769C645.814 407.014 645.576 407.348 645.415 407.77C645.258 408.193 645.179 408.67 645.179 409.201C645.179 409.74 645.26 410.224 645.421 410.654C645.581 411.083 645.819 411.424 646.133 411.676C646.452 411.924 646.843 412.048 647.308 412.048ZM657.368 413.227V402.492H664.026V403.886H658.988V407.157H663.549V408.546H658.988V413.227H657.368ZM665.966 413.227V405.176H667.533V413.227H665.966ZM666.757 403.933C666.485 403.933 666.251 403.842 666.055 403.661C665.863 403.475 665.767 403.255 665.767 403C665.767 402.741 665.863 402.521 666.055 402.34C666.251 402.154 666.485 402.062 666.757 402.062C667.03 402.062 667.262 402.154 667.454 402.34C667.65 402.521 667.748 402.741 667.748 403C667.748 403.255 667.65 403.475 667.454 403.661C667.262 403.842 667.03 403.933 666.757 403.933ZM671.283 402.492V413.227H669.716V402.492H671.283ZM676.936 413.39C676.142 413.39 675.459 413.22 674.886 412.881C674.316 412.539 673.876 412.058 673.565 411.44C673.257 410.818 673.104 410.089 673.104 409.254C673.104 408.429 673.257 407.702 673.565 407.073C673.876 406.444 674.309 405.953 674.865 405.6C675.424 405.247 676.078 405.071 676.826 405.071C677.28 405.071 677.72 405.146 678.147 405.296C678.573 405.446 678.956 405.682 679.295 406.004C679.634 406.325 679.901 406.743 680.097 407.257C680.292 407.767 680.39 408.387 680.39 409.118V409.673H673.99V408.499H678.854C678.854 408.087 678.77 407.721 678.603 407.403C678.435 407.082 678.199 406.829 677.895 406.643C677.594 406.458 677.241 406.366 676.836 406.366C676.396 406.366 676.011 406.474 675.683 406.691C675.358 406.904 675.106 407.183 674.928 407.529C674.753 407.872 674.666 408.244 674.666 408.646V409.563C674.666 410.101 674.76 410.559 674.949 410.937C675.141 411.314 675.408 411.602 675.751 411.802C676.093 411.997 676.494 412.095 676.951 412.095C677.248 412.095 677.519 412.053 677.764 411.969C678.009 411.882 678.22 411.753 678.398 411.581C678.576 411.41 678.713 411.199 678.807 410.947L680.291 411.214C680.172 411.651 679.959 412.034 679.651 412.362C679.347 412.688 678.964 412.941 678.503 413.123C678.045 413.301 677.523 413.39 676.936 413.39ZM688.237 407.141L686.816 407.393C686.757 407.211 686.662 407.038 686.533 406.874C686.407 406.71 686.236 406.575 686.019 406.47C685.803 406.366 685.532 406.313 685.207 406.313C684.763 406.313 684.393 406.413 684.096 406.612C683.798 406.808 683.65 407.061 683.65 407.372C683.65 407.641 683.75 407.858 683.949 408.022C684.148 408.186 684.469 408.321 684.913 408.426L686.192 408.719C686.933 408.89 687.485 409.154 687.849 409.511C688.212 409.867 688.394 410.33 688.394 410.9C688.394 411.382 688.254 411.812 687.975 412.19C687.699 412.563 687.312 412.857 686.816 413.07C686.323 413.283 685.752 413.39 685.102 413.39C684.2 413.39 683.465 413.198 682.895 412.813C682.325 412.425 681.976 411.875 681.847 411.162L683.362 410.931C683.456 411.326 683.65 411.625 683.944 411.828C684.237 412.027 684.62 412.127 685.092 412.127C685.605 412.127 686.016 412.02 686.323 411.807C686.631 411.59 686.785 411.326 686.785 411.015C686.785 410.764 686.69 410.552 686.502 410.381C686.316 410.21 686.032 410.08 685.647 409.993L684.284 409.694C683.533 409.523 682.977 409.25 682.617 408.876C682.261 408.503 682.083 408.029 682.083 407.456C682.083 406.981 682.215 406.565 682.481 406.208C682.747 405.852 683.114 405.574 683.582 405.375C684.05 405.172 684.587 405.071 685.191 405.071C686.061 405.071 686.746 405.259 687.246 405.637C687.746 406.011 688.076 406.512 688.237 407.141Z" fill="black" fill-opacity="0.8"/>
<path fill-rule="evenodd" clip-rule="evenodd" d="M844.779 136.307H846.792L846.792 142.825H844.779L844.779 136.307ZM843.437 136.307H838.74V142.825H843.437L843.437 136.307ZM837.398 136.307C837.398 135.566 837.999 134.965 838.74 134.965H846.792C847.533 134.965 848.134 135.566 848.134 136.307V142.825C848.134 143.567 847.533 144.167 846.792 144.167H838.74C837.999 144.167 837.398 143.567 837.398 142.825V136.307Z" fill="black" fill-opacity="0.8"/>
<path d="M857.081 139.566L853.502 142.25L853.502 136.882L857.081 139.566Z" fill="black" fill-opacity="0.8"/>
<mask id="path-40-outside-2_546_4314" maskUnits="userSpaceOnUse" x="0" y="593.841" width="544" height="56" fill="black">
<rect fill="white" y="593.841" width="544" height="56"/>
<path d="M0 595.841H543.504V649.521H0V595.841Z"/>
</mask>
<path d="M0 597.183H543.504V594.499H0V597.183Z" fill="#E5E5E5" mask="url(#path-40-outside-2_546_4314)"/>
<path fill-rule="evenodd" clip-rule="evenodd" d="M511.296 614.76L512.323 615.402L523.059 622.112L523.969 622.681L523.059 623.25L512.323 629.959L511.296 630.601V629.39V615.971V614.76ZM512.638 617.181V628.18L521.437 622.681L512.638 617.181Z" fill="black" fill-opacity="0.8"/>
<mask id="path-43-outside-3_546_4314" maskUnits="userSpaceOnUse" x="544.846" y="593.841" width="335" height="56" fill="black">
<rect fill="white" x="544.846" y="593.841" width="335" height="56"/>
<path d="M544.846 595.841H879V649.521H544.846V595.841Z"/>
</mask>
<path d="M544.846 597.183H879V594.499H544.846V597.183Z" fill="#E5E5E5" mask="url(#path-43-outside-3_546_4314)"/>
<rect x="16.775" y="613.958" width="20.1298" height="17.4458" rx="2.01298" stroke="black" stroke-opacity="0.8" stroke-width="1.34198"/>
<path d="M20.609 619.661L24.8267 622.76L20.609 625.6" stroke="black" stroke-width="1.20779" stroke-linejoin="bevel"/>
<line x1="26.8398" y1="626.036" x2="33.5498" y2="626.036" stroke="black" stroke-width="1.34198"/>
</g>
</g>
</g>
<defs>
<clipPath id="clip0_546_4314">
<rect width="879" height="649.521" fill="white"/>
</clipPath>
<clipPath id="clip1_546_4314">
<rect width="879" height="649.521" fill="white"/>
</clipPath>
<clipPath id="clip2_546_4314">
<rect width="80.4718" height="42.9435" fill="white" transform="translate(48.3115 59.0473)"/>
</clipPath>
<clipPath id="clip3_546_4314">
<rect width="879" height="542.162" fill="white" transform="translate(0 107.359)"/>
</clipPath>
<clipPath id="clip4_546_4314">
<rect width="129.151" height="42.9435" fill="white" transform="translate(10.7358 118.095)"/>
</clipPath>
<clipPath id="clip5_546_4314">
<rect width="112.727" height="42.9435" fill="white" transform="translate(554.24 118.095)"/>
</clipPath>
<clipPath id="clip6_546_4314">
<rect width="141.151" height="42.9435" fill="white" transform="translate(672.334 311.34)"/>
</clipPath>
<clipPath id="clip7_546_4314">
<rect width="21.4718" height="21.4718" fill="white" transform="translate(683.07 322.076)"/>
</clipPath>
<clipPath id="clip8_546_4314">
<rect x="683.07" y="322.076" width="21.4718" height="21.4718" rx="4.02595" fill="white"/>
</clipPath>
</defs>
</svg>
