<svg width="108" height="106" viewBox="0 0 108 106" fill="none" xmlns="http://www.w3.org/2000/svg">
<path d="M105.132 15.618L56.7947 101.945C55.7967 103.727 53.2326 103.738 52.2197 101.964L2.92375 15.6263C1.82016 13.6935 3.47504 11.3522 5.66808 11.7437L54.0573 20.3822C54.366 20.4373 54.682 20.4367 54.9907 20.3806L102.368 11.7561C104.554 11.3583 106.216 13.6813 105.132 15.618Z" fill="url(#paint0_linear_431_3560)"/>
<path d="M77.1089 0.41315L41.3377 7.41356C40.7497 7.52861 40.3144 8.02623 40.279 8.62343L38.0785 45.7401C38.0268 46.6144 38.8307 47.2929 39.685 47.0961L49.6442 44.8005C50.576 44.5859 51.418 45.4056 51.2265 46.3415L48.2676 60.8123C48.0685 61.7863 48.984 62.619 49.9363 62.3302L56.0876 60.4636C57.0412 60.1745 57.9575 61.0096 57.7558 61.9844L53.0536 84.7148C52.7594 86.1366 54.653 86.9119 55.4427 85.6929L55.9702 84.8788L85.1185 26.7813C85.6066 25.8086 84.7649 24.6994 83.6952 24.9056L73.4438 26.8816C72.4805 27.0671 71.6608 26.171 71.9327 25.2297L78.6236 2.06415C78.8958 1.12124 78.0732 0.224444 77.1089 0.41315Z" fill="url(#paint1_linear_431_3560)"/>
<defs>
<linearGradient id="paint0_linear_431_3560" x1="1.72015" y1="8.65853" x2="61.7818" y2="90.3297" gradientUnits="userSpaceOnUse">
<stop stop-color="#41D1FF"/>
<stop offset="1" stop-color="#BD34FE"/>
</linearGradient>
<linearGradient id="paint1_linear_431_3560" x1="51.2811" y1="2.31375" x2="62.137" y2="76.8773" gradientUnits="userSpaceOnUse">
<stop stop-color="#FFEA83"/>
<stop offset="0.0833333" stop-color="#FFDD35"/>
<stop offset="1" stop-color="#FFA800"/>
</linearGradient>
</defs>
</svg>
