<svg width="24" height="24" viewBox="0 0 24 24" fill="none" xmlns="http://www.w3.org/2000/svg">
<path fill-rule="evenodd" clip-rule="evenodd" d="M12 22C17.5228 22 22 17.5228 22 12C22 6.47715 17.5228 2 12 2C6.47715 2 2 6.47715 2 12C2 17.5228 6.47715 22 12 22ZM10.9955 7.30892C10.9955 6.75663 11.4432 6.30892 11.9955 6.30892H12.0075C12.5598 6.30892 13.0075 6.75663 13.0075 7.30892C13.0075 7.8612 12.5598 8.30892 12.0075 8.30892H11.9955C11.4432 8.30892 10.9955 7.8612 10.9955 7.30892ZM11.9925 17.6911C11.4403 17.6911 10.9925 17.2434 10.9925 16.6911V10.6522C10.9925 10.0999 11.4402 9.65219 11.9925 9.65219C12.5448 9.65219 12.9925 10.0999 12.9925 10.6522V16.6911C12.9925 17.2434 12.5448 17.6911 11.9925 17.6911Z" fill="#0966F3"/>
</svg>
