<svg width="24" height="24" viewBox="0 0 24 24" fill="none" xmlns="http://www.w3.org/2000/svg">
<path fill-rule="evenodd" clip-rule="evenodd" d="M13.8206 3.95185C12.9957 2.38471 10.7517 2.3847 9.92692 3.95185L2.44087 18.1753C1.66982 19.6403 2.73216 21.4 4.38769 21.4H19.3598C21.0153 21.4 22.0777 19.6403 21.3066 18.1753L13.8206 3.95185ZM11.7 14.9999C11.1477 14.9999 10.7 14.5522 10.7 13.9999V10.5C10.7 9.94772 11.1477 9.5 11.7 9.5C12.2522 9.5 12.7 9.94771 12.7 10.5V13.9999C12.7 14.5522 12.2522 14.9999 11.7 14.9999ZM10.7 17.1315C10.7 16.5792 11.1477 16.1315 11.7 16.1315H11.7088C12.2611 16.1315 12.7088 16.5792 12.7088 17.1315C12.7088 17.6838 12.2611 18.1315 11.7088 18.1315H11.7C11.1477 18.1315 10.7 17.6838 10.7 17.1315Z" fill="#FCA31E"/>
</svg>
